solid OpenSCAD_Model
  facet normal 0.994522 0.104524 0
    outer loop
      vertex 3.5 0 12
      vertex 3.42352 0.727691 0
      vertex 3.42352 0.727691 12
    endloop
  endfacet
  facet normal 0.994522 0.104524 0
    outer loop
      vertex 3.42352 0.727691 0
      vertex 3.5 0 12
      vertex 3.5 0 0
    endloop
  endfacet
  facet normal 0.951056 0.309019 0
    outer loop
      vertex 3.42352 0.727691 12
      vertex 3.19741 1.42358 0
      vertex 3.19741 1.42358 12
    endloop
  endfacet
  facet normal 0.951056 0.309019 0
    outer loop
      vertex 3.19741 1.42358 0
      vertex 3.42352 0.727691 12
      vertex 3.42352 0.727691 0
    endloop
  endfacet
  facet normal 0.866025 0.5 0
    outer loop
      vertex 3.19741 1.42358 12
      vertex 2.83156 2.05725 0
      vertex 2.83156 2.05725 12
    endloop
  endfacet
  facet normal 0.866025 0.5 0
    outer loop
      vertex 2.83156 2.05725 0
      vertex 3.19741 1.42358 12
      vertex 3.19741 1.42358 0
    endloop
  endfacet
  facet normal 0.743147 0.669128 0
    outer loop
      vertex 2.83156 2.05725 12
      vertex 2.34196 2.60101 0
      vertex 2.34196 2.60101 12
    endloop
  endfacet
  facet normal 0.743147 0.669128 0
    outer loop
      vertex 2.34196 2.60101 0
      vertex 2.83156 2.05725 12
      vertex 2.83156 2.05725 0
    endloop
  endfacet
  facet normal 0.587782 0.80902 -0
    outer loop
      vertex 2.34196 2.60101 0
      vertex 1.75 3.03109 12
      vertex 2.34196 2.60101 12
    endloop
  endfacet
  facet normal 0.587782 0.80902 0
    outer loop
      vertex 1.75 3.03109 12
      vertex 2.34196 2.60101 0
      vertex 1.75 3.03109 0
    endloop
  endfacet
  facet normal 0.406738 0.913545 -0
    outer loop
      vertex 1.75 3.03109 0
      vertex 1.08156 3.3287 12
      vertex 1.75 3.03109 12
    endloop
  endfacet
  facet normal 0.406738 0.913545 0
    outer loop
      vertex 1.08156 3.3287 12
      vertex 1.75 3.03109 0
      vertex 1.08156 3.3287 0
    endloop
  endfacet
  facet normal 0.207913 0.978147 -0
    outer loop
      vertex 1.08156 3.3287 0
      vertex 0.36585 3.48083 12
      vertex 1.08156 3.3287 12
    endloop
  endfacet
  facet normal 0.207913 0.978147 0
    outer loop
      vertex 0.36585 3.48083 12
      vertex 1.08156 3.3287 0
      vertex 0.36585 3.48083 0
    endloop
  endfacet
  facet normal 0 1 -0
    outer loop
      vertex 0.36585 3.48083 0
      vertex -0.36585 3.48083 12
      vertex 0.36585 3.48083 12
    endloop
  endfacet
  facet normal 0 1 0
    outer loop
      vertex -0.36585 3.48083 12
      vertex 0.36585 3.48083 0
      vertex -0.36585 3.48083 0
    endloop
  endfacet
  facet normal -0.207913 0.978147 0
    outer loop
      vertex -0.36585 3.48083 0
      vertex -1.08156 3.3287 12
      vertex -0.36585 3.48083 12
    endloop
  endfacet
  facet normal -0.207913 0.978147 0
    outer loop
      vertex -1.08156 3.3287 12
      vertex -0.36585 3.48083 0
      vertex -1.08156 3.3287 0
    endloop
  endfacet
  facet normal -0.406738 0.913545 0
    outer loop
      vertex -1.08156 3.3287 0
      vertex -1.75 3.03109 12
      vertex -1.08156 3.3287 12
    endloop
  endfacet
  facet normal -0.406738 0.913545 0
    outer loop
      vertex -1.75 3.03109 12
      vertex -1.08156 3.3287 0
      vertex -1.75 3.03109 0
    endloop
  endfacet
  facet normal -0.587782 0.80902 0
    outer loop
      vertex -1.75 3.03109 0
      vertex -2.34196 2.60101 12
      vertex -1.75 3.03109 12
    endloop
  endfacet
  facet normal -0.587782 0.80902 0
    outer loop
      vertex -2.34196 2.60101 12
      vertex -1.75 3.03109 0
      vertex -2.34196 2.60101 0
    endloop
  endfacet
  facet normal -0.743147 0.669128 0
    outer loop
      vertex -2.83156 2.05725 0
      vertex -2.34196 2.60101 12
      vertex -2.34196 2.60101 0
    endloop
  endfacet
  facet normal -0.743147 0.669128 0
    outer loop
      vertex -2.34196 2.60101 12
      vertex -2.83156 2.05725 0
      vertex -2.83156 2.05725 12
    endloop
  endfacet
  facet normal -0.866025 0.5 0
    outer loop
      vertex -3.19741 1.42358 0
      vertex -2.83156 2.05725 12
      vertex -2.83156 2.05725 0
    endloop
  endfacet
  facet normal -0.866025 0.5 0
    outer loop
      vertex -2.83156 2.05725 12
      vertex -3.19741 1.42358 0
      vertex -3.19741 1.42358 12
    endloop
  endfacet
  facet normal -0.951056 0.309019 0
    outer loop
      vertex -3.42352 0.727691 0
      vertex -3.19741 1.42358 12
      vertex -3.19741 1.42358 0
    endloop
  endfacet
  facet normal -0.951056 0.309019 0
    outer loop
      vertex -3.19741 1.42358 12
      vertex -3.42352 0.727691 0
      vertex -3.42352 0.727691 12
    endloop
  endfacet
  facet normal -0.994522 0.104524 0
    outer loop
      vertex -3.5 -0 0
      vertex -3.42352 0.727691 12
      vertex -3.42352 0.727691 0
    endloop
  endfacet
  facet normal -0.994522 0.104524 0
    outer loop
      vertex -3.42352 0.727691 12
      vertex -3.5 -0 0
      vertex -3.5 -0 12
    endloop
  endfacet
  facet normal -0.994522 -0.104524 0
    outer loop
      vertex -3.42352 -0.727691 0
      vertex -3.5 -0 12
      vertex -3.5 -0 0
    endloop
  endfacet
  facet normal -0.994522 -0.104524 0
    outer loop
      vertex -3.5 -0 12
      vertex -3.42352 -0.727691 0
      vertex -3.42352 -0.727691 12
    endloop
  endfacet
  facet normal -0.951056 -0.309019 0
    outer loop
      vertex -3.19741 -1.42358 0
      vertex -3.42352 -0.727691 12
      vertex -3.42352 -0.727691 0
    endloop
  endfacet
  facet normal -0.951056 -0.309019 0
    outer loop
      vertex -3.42352 -0.727691 12
      vertex -3.19741 -1.42358 0
      vertex -3.19741 -1.42358 12
    endloop
  endfacet
  facet normal -0.866025 -0.5 0
    outer loop
      vertex -2.83156 -2.05725 0
      vertex -3.19741 -1.42358 12
      vertex -3.19741 -1.42358 0
    endloop
  endfacet
  facet normal -0.866025 -0.5 0
    outer loop
      vertex -3.19741 -1.42358 12
      vertex -2.83156 -2.05725 0
      vertex -2.83156 -2.05725 12
    endloop
  endfacet
  facet normal -0.743147 -0.669128 0
    outer loop
      vertex -2.34196 -2.60101 0
      vertex -2.83156 -2.05725 12
      vertex -2.83156 -2.05725 0
    endloop
  endfacet
  facet normal -0.743147 -0.669128 0
    outer loop
      vertex -2.83156 -2.05725 12
      vertex -2.34196 -2.60101 0
      vertex -2.34196 -2.60101 12
    endloop
  endfacet
  facet normal -0.587782 -0.80902 0
    outer loop
      vertex -2.34196 -2.60101 0
      vertex -1.75 -3.03109 12
      vertex -2.34196 -2.60101 12
    endloop
  endfacet
  facet normal -0.587782 -0.80902 -0
    outer loop
      vertex -1.75 -3.03109 12
      vertex -2.34196 -2.60101 0
      vertex -1.75 -3.03109 0
    endloop
  endfacet
  facet normal -0.406738 -0.913545 0
    outer loop
      vertex -1.75 -3.03109 0
      vertex -1.08156 -3.3287 12
      vertex -1.75 -3.03109 12
    endloop
  endfacet
  facet normal -0.406738 -0.913545 -0
    outer loop
      vertex -1.08156 -3.3287 12
      vertex -1.75 -3.03109 0
      vertex -1.08156 -3.3287 0
    endloop
  endfacet
  facet normal -0.207913 -0.978147 0
    outer loop
      vertex -1.08156 -3.3287 0
      vertex -0.36585 -3.48083 12
      vertex -1.08156 -3.3287 12
    endloop
  endfacet
  facet normal -0.207913 -0.978147 -0
    outer loop
      vertex -0.36585 -3.48083 12
      vertex -1.08156 -3.3287 0
      vertex -0.36585 -3.48083 0
    endloop
  endfacet
  facet normal 0 -1 0
    outer loop
      vertex -0.36585 -3.48083 0
      vertex 0.36585 -3.48083 12
      vertex -0.36585 -3.48083 12
    endloop
  endfacet
  facet normal 0 -1 -0
    outer loop
      vertex 0.36585 -3.48083 12
      vertex -0.36585 -3.48083 0
      vertex 0.36585 -3.48083 0
    endloop
  endfacet
  facet normal 0.207913 -0.978147 0
    outer loop
      vertex 0.36585 -3.48083 0
      vertex 1.08156 -3.3287 12
      vertex 0.36585 -3.48083 12
    endloop
  endfacet
  facet normal 0.207913 -0.978147 0
    outer loop
      vertex 1.08156 -3.3287 12
      vertex 0.36585 -3.48083 0
      vertex 1.08156 -3.3287 0
    endloop
  endfacet
  facet normal 0.406738 -0.913545 0
    outer loop
      vertex 1.08156 -3.3287 0
      vertex 1.75 -3.03109 12
      vertex 1.08156 -3.3287 12
    endloop
  endfacet
  facet normal 0.406738 -0.913545 0
    outer loop
      vertex 1.75 -3.03109 12
      vertex 1.08156 -3.3287 0
      vertex 1.75 -3.03109 0
    endloop
  endfacet
  facet normal 0.587782 -0.80902 0
    outer loop
      vertex 1.75 -3.03109 0
      vertex 2.34196 -2.60101 12
      vertex 1.75 -3.03109 12
    endloop
  endfacet
  facet normal 0.587782 -0.80902 0
    outer loop
      vertex 2.34196 -2.60101 12
      vertex 1.75 -3.03109 0
      vertex 2.34196 -2.60101 0
    endloop
  endfacet
  facet normal 0.743147 -0.669128 0
    outer loop
      vertex 2.34196 -2.60101 12
      vertex 2.83156 -2.05725 0
      vertex 2.83156 -2.05725 12
    endloop
  endfacet
  facet normal 0.743147 -0.669128 0
    outer loop
      vertex 2.83156 -2.05725 0
      vertex 2.34196 -2.60101 12
      vertex 2.34196 -2.60101 0
    endloop
  endfacet
  facet normal 0.866025 -0.5 0
    outer loop
      vertex 2.83156 -2.05725 12
      vertex 3.19741 -1.42358 0
      vertex 3.19741 -1.42358 12
    endloop
  endfacet
  facet normal 0.866025 -0.5 0
    outer loop
      vertex 3.19741 -1.42358 0
      vertex 2.83156 -2.05725 12
      vertex 2.83156 -2.05725 0
    endloop
  endfacet
  facet normal 0.951056 -0.309019 0
    outer loop
      vertex 3.19741 -1.42358 12
      vertex 3.42352 -0.727691 0
      vertex 3.42352 -0.727691 12
    endloop
  endfacet
  facet normal 0.951056 -0.309019 0
    outer loop
      vertex 3.42352 -0.727691 0
      vertex 3.19741 -1.42358 12
      vertex 3.19741 -1.42358 0
    endloop
  endfacet
  facet normal 0.994522 -0.104524 0
    outer loop
      vertex 3.42352 -0.727691 12
      vertex 3.5 0 0
      vertex 3.5 0 12
    endloop
  endfacet
  facet normal 0.994522 -0.104524 0
    outer loop
      vertex 3.5 0 0
      vertex 3.42352 -0.727691 12
      vertex 3.42352 -0.727691 0
    endloop
  endfacet
  facet normal 0 0 -1
    outer loop
      vertex 3.42352 -0.727691 0
      vertex 3.42352 0.727691 0
      vertex 3.5 0 0
    endloop
  endfacet
  facet normal 0 0 -1
    outer loop
      vertex 3.19741 -1.42358 0
      vertex 3.42352 0.727691 0
      vertex 3.42352 -0.727691 0
    endloop
  endfacet
  facet normal 0 0 -1
    outer loop
      vertex 3.19741 -1.42358 0
      vertex 3.19741 1.42358 0
      vertex 3.42352 0.727691 0
    endloop
  endfacet
  facet normal 0 0 -1
    outer loop
      vertex 2.83156 -2.05725 0
      vertex 3.19741 1.42358 0
      vertex 3.19741 -1.42358 0
    endloop
  endfacet
  facet normal 0 0 -1
    outer loop
      vertex 2.83156 -2.05725 0
      vertex 2.83156 2.05725 0
      vertex 3.19741 1.42358 0
    endloop
  endfacet
  facet normal 0 0 -1
    outer loop
      vertex 2.34196 -2.60101 0
      vertex 2.83156 2.05725 0
      vertex 2.83156 -2.05725 0
    endloop
  endfacet
  facet normal 0 0 -1
    outer loop
      vertex 2.34196 -2.60101 0
      vertex 2.34196 2.60101 0
      vertex 2.83156 2.05725 0
    endloop
  endfacet
  facet normal 0 0 -1
    outer loop
      vertex 1.75 -3.03109 0
      vertex 2.34196 2.60101 0
      vertex 2.34196 -2.60101 0
    endloop
  endfacet
  facet normal 0 0 -1
    outer loop
      vertex 1.75 -3.03109 0
      vertex 1.75 3.03109 0
      vertex 2.34196 2.60101 0
    endloop
  endfacet
  facet normal 0 0 -1
    outer loop
      vertex 1.08156 -3.3287 0
      vertex 1.75 3.03109 0
      vertex 1.75 -3.03109 0
    endloop
  endfacet
  facet normal 0 0 -1
    outer loop
      vertex 1.08156 -3.3287 0
      vertex 1.08156 3.3287 0
      vertex 1.75 3.03109 0
    endloop
  endfacet
  facet normal 0 0 -1
    outer loop
      vertex 0.36585 -3.48083 0
      vertex 1.08156 3.3287 0
      vertex 1.08156 -3.3287 0
    endloop
  endfacet
  facet normal 0 0 -1
    outer loop
      vertex 0.36585 -3.48083 0
      vertex 0.36585 3.48083 0
      vertex 1.08156 3.3287 0
    endloop
  endfacet
  facet normal 0 0 -1
    outer loop
      vertex -0.36585 -3.48083 0
      vertex 0.36585 3.48083 0
      vertex 0.36585 -3.48083 0
    endloop
  endfacet
  facet normal 0 0 -1
    outer loop
      vertex -0.36585 -3.48083 0
      vertex -0.36585 3.48083 0
      vertex 0.36585 3.48083 0
    endloop
  endfacet
  facet normal 0 0 -1
    outer loop
      vertex -1.08156 -3.3287 0
      vertex -0.36585 3.48083 0
      vertex -0.36585 -3.48083 0
    endloop
  endfacet
  facet normal 0 0 -1
    outer loop
      vertex -1.08156 -3.3287 0
      vertex -1.08156 3.3287 0
      vertex -0.36585 3.48083 0
    endloop
  endfacet
  facet normal 0 0 -1
    outer loop
      vertex -1.75 -3.03109 0
      vertex -1.08156 3.3287 0
      vertex -1.08156 -3.3287 0
    endloop
  endfacet
  facet normal 0 0 -1
    outer loop
      vertex -1.75 -3.03109 0
      vertex -1.75 3.03109 0
      vertex -1.08156 3.3287 0
    endloop
  endfacet
  facet normal 0 0 -1
    outer loop
      vertex -2.34196 -2.60101 0
      vertex -1.75 3.03109 0
      vertex -1.75 -3.03109 0
    endloop
  endfacet
  facet normal 0 0 -1
    outer loop
      vertex -2.34196 -2.60101 0
      vertex -2.34196 2.60101 0
      vertex -1.75 3.03109 0
    endloop
  endfacet
  facet normal 0 0 -1
    outer loop
      vertex -2.83156 -2.05725 0
      vertex -2.34196 2.60101 0
      vertex -2.34196 -2.60101 0
    endloop
  endfacet
  facet normal 0 0 -1
    outer loop
      vertex -2.83156 -2.05725 0
      vertex -2.83156 2.05725 0
      vertex -2.34196 2.60101 0
    endloop
  endfacet
  facet normal 0 0 -1
    outer loop
      vertex -3.19741 -1.42358 0
      vertex -2.83156 2.05725 0
      vertex -2.83156 -2.05725 0
    endloop
  endfacet
  facet normal 0 0 -1
    outer loop
      vertex -3.19741 -1.42358 0
      vertex -3.19741 1.42358 0
      vertex -2.83156 2.05725 0
    endloop
  endfacet
  facet normal 0 0 -1
    outer loop
      vertex -3.42352 -0.727691 0
      vertex -3.19741 1.42358 0
      vertex -3.19741 -1.42358 0
    endloop
  endfacet
  facet normal 0 0 -1
    outer loop
      vertex -3.42352 -0.727691 0
      vertex -3.42352 0.727691 0
      vertex -3.19741 1.42358 0
    endloop
  endfacet
  facet normal 0 -0 -1
    outer loop
      vertex -3.42352 0.727691 0
      vertex -3.42352 -0.727691 0
      vertex -3.5 -0 0
    endloop
  endfacet
  facet normal 0 0 1
    outer loop
      vertex 3.42352 0.727691 12
      vertex 3.42352 -0.727691 12
      vertex 3.5 0 12
    endloop
  endfacet
  facet normal 0 0 1
    outer loop
      vertex 3.19741 1.42358 12
      vertex 3.42352 -0.727691 12
      vertex 3.42352 0.727691 12
    endloop
  endfacet
  facet normal 0 0 1
    outer loop
      vertex 3.19741 1.42358 12
      vertex 3.19741 -1.42358 12
      vertex 3.42352 -0.727691 12
    endloop
  endfacet
  facet normal 0 0 1
    outer loop
      vertex 2.83156 2.05725 12
      vertex 3.19741 -1.42358 12
      vertex 3.19741 1.42358 12
    endloop
  endfacet
  facet normal 0 0 1
    outer loop
      vertex 2.83156 2.05725 12
      vertex 2.83156 -2.05725 12
      vertex 3.19741 -1.42358 12
    endloop
  endfacet
  facet normal 0 0 1
    outer loop
      vertex 2.34196 2.60101 12
      vertex 2.83156 -2.05725 12
      vertex 2.83156 2.05725 12
    endloop
  endfacet
  facet normal 0 0 1
    outer loop
      vertex 2.34196 2.60101 12
      vertex 2.34196 -2.60101 12
      vertex 2.83156 -2.05725 12
    endloop
  endfacet
  facet normal 0 0 1
    outer loop
      vertex 1.75 3.03109 12
      vertex 2.34196 -2.60101 12
      vertex 2.34196 2.60101 12
    endloop
  endfacet
  facet normal 0 0 1
    outer loop
      vertex 1.75 3.03109 12
      vertex 1.75 -3.03109 12
      vertex 2.34196 -2.60101 12
    endloop
  endfacet
  facet normal 0 0 1
    outer loop
      vertex 1.08156 3.3287 12
      vertex 1.75 -3.03109 12
      vertex 1.75 3.03109 12
    endloop
  endfacet
  facet normal 0 0 1
    outer loop
      vertex 1.08156 3.3287 12
      vertex 1.08156 -3.3287 12
      vertex 1.75 -3.03109 12
    endloop
  endfacet
  facet normal 0 0 1
    outer loop
      vertex 0.36585 3.48083 12
      vertex 1.08156 -3.3287 12
      vertex 1.08156 3.3287 12
    endloop
  endfacet
  facet normal 0 0 1
    outer loop
      vertex 0.36585 3.48083 12
      vertex 0.36585 -3.48083 12
      vertex 1.08156 -3.3287 12
    endloop
  endfacet
  facet normal -0 0 1
    outer loop
      vertex -0.36585 3.48083 12
      vertex 0.36585 -3.48083 12
      vertex 0.36585 3.48083 12
    endloop
  endfacet
  facet normal 0 0 1
    outer loop
      vertex -0.36585 3.48083 12
      vertex -0.36585 -3.48083 12
      vertex 0.36585 -3.48083 12
    endloop
  endfacet
  facet normal -0 0 1
    outer loop
      vertex -1.08156 3.3287 12
      vertex -0.36585 -3.48083 12
      vertex -0.36585 3.48083 12
    endloop
  endfacet
  facet normal 0 0 1
    outer loop
      vertex -1.08156 3.3287 12
      vertex -1.08156 -3.3287 12
      vertex -0.36585 -3.48083 12
    endloop
  endfacet
  facet normal -0 0 1
    outer loop
      vertex -1.75 3.03109 12
      vertex -1.08156 -3.3287 12
      vertex -1.08156 3.3287 12
    endloop
  endfacet
  facet normal 0 0 1
    outer loop
      vertex -1.75 3.03109 12
      vertex -1.75 -3.03109 12
      vertex -1.08156 -3.3287 12
    endloop
  endfacet
  facet normal -0 0 1
    outer loop
      vertex -2.34196 2.60101 12
      vertex -1.75 -3.03109 12
      vertex -1.75 3.03109 12
    endloop
  endfacet
  facet normal 0 0 1
    outer loop
      vertex -2.34196 2.60101 12
      vertex -2.34196 -2.60101 12
      vertex -1.75 -3.03109 12
    endloop
  endfacet
  facet normal -0 0 1
    outer loop
      vertex -2.83156 2.05725 12
      vertex -2.34196 -2.60101 12
      vertex -2.34196 2.60101 12
    endloop
  endfacet
  facet normal 0 0 1
    outer loop
      vertex -2.83156 2.05725 12
      vertex -2.83156 -2.05725 12
      vertex -2.34196 -2.60101 12
    endloop
  endfacet
  facet normal -0 0 1
    outer loop
      vertex -3.19741 1.42358 12
      vertex -2.83156 -2.05725 12
      vertex -2.83156 2.05725 12
    endloop
  endfacet
  facet normal 0 0 1
    outer loop
      vertex -3.19741 1.42358 12
      vertex -3.19741 -1.42358 12
      vertex -2.83156 -2.05725 12
    endloop
  endfacet
  facet normal -0 0 1
    outer loop
      vertex -3.42352 0.727691 12
      vertex -3.19741 -1.42358 12
      vertex -3.19741 1.42358 12
    endloop
  endfacet
  facet normal 0 0 1
    outer loop
      vertex -3.42352 0.727691 12
      vertex -3.42352 -0.727691 12
      vertex -3.19741 -1.42358 12
    endloop
  endfacet
  facet normal 0 -0 1
    outer loop
      vertex -3.42352 -0.727691 12
      vertex -3.42352 0.727691 12
      vertex -3.5 -0 12
    endloop
  endfacet
endsolid OpenSCAD_Model
